<?xml version="1.0" standalone="no"?>
<!DOCTYPE svg PUBLIC "-//W3C//DTD SVG 20010904//EN"
 "http://www.w3.org/TR/2001/REC-SVG-20010904/DTD/svg10.dtd">
<svg version="1.0" xmlns="http://www.w3.org/2000/svg"
 width="1256.000000pt" height="1256.000000pt" viewBox="0 0 1256.000000 1256.000000"
 preserveAspectRatio="xMidYMid meet">
<metadata>
Created by potrace 1.11, written by Peter Selinger 2001-2013
</metadata>
<g transform="translate(0.000000,1256.000000) scale(0.100000,-0.100000)"
fill="#000000" stroke="none">
<path d="M1949 8936 c-2 -2 -35 -6 -74 -10 -38 -3 -79 -7 -90 -10 -11 -2 -40
-7 -65 -10 -67 -9 -178 -35 -305 -71 -11 -4 -24 -7 -30 -8 -5 -2 -14 -5 -20
-8 -5 -4 -28 -12 -50 -19 -22 -7 -78 -30 -123 -51 -46 -22 -86 -39 -88 -39 -6
0 -164 -90 -179 -102 -5 -4 -47 -35 -93 -69 -208 -154 -376 -350 -490 -574
-43 -84 -91 -196 -98 -230 -2 -11 -11 -48 -19 -83 -9 -34 -18 -79 -20 -100 -2
-20 -5 -37 -6 -37 -4 0 -13 -166 -10 -195 1 -13 57 -15 441 -15 241 1 441 3
444 6 2 2 7 45 10 94 3 50 8 101 11 115 3 14 8 39 10 55 32 185 144 358 298
464 96 66 282 140 394 156 15 2 39 7 53 10 105 24 468 23 570 -1 14 -3 32 -6
40 -6 8 0 56 -10 106 -23 101 -26 204 -71 273 -118 58 -39 171 -154 171 -173
0 -8 4 -14 9 -14 14 0 88 -159 111 -240 35 -126 47 -256 49 -546 2 -257 1
-274 -16 -275 -55 -3 -135 -11 -258 -24 -22 -2 -71 -7 -110 -10 -38 -3 -88 -8
-110 -10 -22 -2 -69 -6 -105 -9 -36 -4 -92 -9 -124 -12 -32 -3 -75 -7 -95 -9
-54 -5 -182 -17 -216 -20 -16 -2 -64 -6 -105 -10 -41 -4 -91 -8 -110 -10 -19
-2 -69 -6 -110 -10 -41 -4 -88 -8 -105 -10 -16 -1 -59 -6 -95 -9 -170 -16
-242 -25 -310 -37 -210 -36 -370 -89 -548 -181 -161 -83 -298 -193 -411 -332
-64 -78 -151 -208 -151 -225 0 -6 -4 -11 -10 -11 -5 0 -10 -8 -10 -19 0 -10
-7 -24 -15 -31 -8 -7 -15 -18 -15 -24 0 -6 -9 -28 -20 -49 -11 -20 -20 -45
-20 -55 0 -10 -4 -22 -8 -27 -9 -10 -37 -99 -48 -150 -3 -16 -13 -64 -21 -105
-24 -119 -23 -456 2 -570 19 -87 25 -111 40 -165 28 -100 103 -269 150 -339
14 -20 25 -40 25 -43 0 -9 78 -111 120 -157 65 -72 176 -177 212 -201 9 -5 43
-29 76 -53 34 -23 65 -42 71 -42 5 0 11 -3 13 -7 13 -30 362 -165 454 -176 21
-3 46 -8 54 -11 8 -2 33 -7 55 -10 22 -3 65 -9 95 -13 72 -10 407 -10 490 1
113 13 106 12 236 40 12 2 54 15 95 27 41 13 77 23 81 23 3 1 10 4 14 8 4 5
13 8 21 8 17 0 216 96 263 127 19 13 44 29 54 36 89 58 236 196 312 292 21 28
42 52 47 53 4 2 7 7 7 12 0 7 58 100 78 125 13 16 108 216 123 258 10 27 19
37 34 37 21 0 22 -5 23 -97 0 -54 1 -98 2 -98 1 0 3 -108 6 -240 6 -268 11
-474 13 -491 2 -16 1511 -17 1512 0 4 50 3 740 -2 747 -3 5 -174 10 -379 11
l-375 3 -1 1440 c-1 792 -4 1458 -8 1480 -3 22 -8 63 -11 90 -14 121 -62 305
-117 445 -13 32 -79 160 -103 199 -5 9 -21 34 -34 56 -14 22 -27 42 -30 45 -4
3 -24 28 -46 55 -74 93 -158 169 -310 280 -103 75 -361 195 -495 230 -53 14
-188 48 -205 51 -64 13 -136 25 -180 30 -27 3 -63 8 -80 11 -35 6 -481 14
-486 9z m1228 -3054 c-4 -130 -9 -253 -12 -272 -5 -30 -21 -122 -42 -235 -2
-16 -10 -36 -15 -42 -6 -7 -8 -13 -5 -13 4 0 -1 -19 -9 -42 -9 -24 -17 -50
-19 -58 -10 -43 -74 -184 -112 -246 -24 -39 -43 -76 -43 -82 0 -6 -4 -12 -8
-14 -4 -1 -23 -24 -42 -50 -18 -27 -37 -48 -42 -48 -5 0 -7 -4 -4 -8 8 -14
-173 -183 -249 -233 -104 -68 -219 -123 -305 -144 -180 -45 -208 -48 -395 -50
-104 -1 -206 2 -225 6 -19 4 -52 10 -72 13 -371 57 -584 253 -614 565 -10 104
-10 111 -1 111 4 0 5 5 1 12 -10 16 -11 148 -1 148 5 0 5 5 1 12 -11 17 -11
168 0 168 5 0 4 6 -1 13 -14 20 -2 218 18 290 7 23 13 47 15 53 6 30 39 87 68
115 56 57 156 89 316 104 36 3 88 8 115 11 28 3 70 7 95 9 25 2 72 7 105 10
80 7 148 13 226 20 35 3 80 7 99 10 19 3 71 7 115 11 44 3 94 7 110 9 17 1 62
6 100 9 39 4 88 8 110 11 22 2 72 7 110 10 39 4 87 8 108 11 20 2 68 6 105 9
37 3 87 8 112 10 25 3 81 7 125 11 44 3 81 7 83 8 1 2 21 3 43 4 l42 2 -6
-238z"/>
<path d="M7897 8883 c-2 -1 -28 -5 -58 -9 -60 -7 -205 -46 -259 -70 -85 -38
-181 -89 -255 -137 -90 -59 -86 -55 -141 -99 -22 -18 -57 -46 -79 -63 -21 -16
-45 -37 -54 -45 -9 -9 -56 -52 -105 -95 -49 -44 -106 -97 -127 -117 -21 -21
-41 -38 -46 -38 -4 0 -8 151 -7 335 0 184 -2 335 -5 335 -4 0 -43 -15 -88 -34
-123 -52 -382 -134 -473 -150 -14 -2 -43 -9 -65 -14 -40 -11 -87 -20 -135 -27
-14 -2 -38 -6 -55 -9 -84 -15 -101 -17 -149 -21 -28 -3 -61 -7 -74 -9 -18 -4
-224 -18 -279 -19 -9 0 -13 -18 -13 -52 0 -50 2 -53 33 -65 198 -74 261 -157
285 -375 4 -38 7 -123 7 -187 0 -65 3 -118 7 -118 3 0 3 -12 -1 -27 -4 -16 -4
-45 -1 -65 4 -21 5 -38 1 -38 -3 0 -5 -24 -3 -52 2 -29 3 -60 3 -68 0 -8 0
-71 0 -140 0 -152 0 -134 -3 -198 -2 -28 0 -52 3 -52 4 0 3 -15 0 -32 -4 -18
-4 -47 0 -65 4 -18 4 -34 1 -37 -3 -4 -4 -27 -3 -54 1 -26 2 -54 1 -62 0 -8 1
-35 1 -60 0 -25 0 -52 0 -60 -2 -50 -2 -137 -1 -145 1 -6 2 -13 0 -17 -4 -18
-2 -99 3 -104 3 -3 2 -17 -2 -32 -4 -15 -4 -44 -1 -64 4 -21 5 -38 1 -38 -3 0
-5 -24 -3 -52 2 -29 3 -60 3 -68 -2 -62 1 -155 5 -162 3 -4 2 -8 -3 -8 -8 0
-7 -125 2 -147 2 -7 1 -13 -3 -13 -8 0 -6 -126 3 -147 2 -7 1 -13 -3 -13 -8 0
-6 -126 3 -147 2 -7 1 -13 -3 -13 -5 0 -6 -100 -1 -225 0 -5 0 -30 0 -55 0
-25 -1 -52 -1 -60 1 -8 0 -36 -1 -62 -1 -27 0 -50 3 -54 3 -3 3 -19 -1 -37 -4
-18 -4 -47 0 -65 3 -17 4 -32 0 -32 -3 0 -5 -24 -3 -52 3 -61 3 -64 2 -120 -1
-24 -1 -47 0 -53 1 -5 2 -12 1 -15 -1 -3 -3 -84 -6 -180 -2 -96 -6 -191 -10
-210 -3 -19 -8 -53 -10 -75 -14 -158 -67 -304 -136 -373 -44 -45 -114 -79
-213 -104 -83 -21 -102 -33 -85 -54 6 -7 6 -15 1 -18 -5 -3 -7 -17 -5 -30 l5
-25 127 4 c518 21 1110 21 1687 1 l112 -4 1 53 0 53 -37 8 c-20 4 -42 8 -49
10 -83 17 -168 59 -213 105 -94 97 -135 248 -156 569 -4 65 -9 3265 -5 3366 1
27 125 150 261 257 8 7 26 18 40 25 14 7 45 24 70 37 102 55 242 80 350 63 83
-12 96 -16 139 -40 135 -76 203 -220 217 -462 2 -38 6 -71 9 -75 11 -10 975
-7 976 4 5 42 -5 251 -16 327 -17 122 -25 167 -41 223 -2 6 -5 19 -8 30 -2 11
-16 54 -31 95 -76 211 -199 357 -371 441 -57 27 -81 36 -154 53 -61 15 -303
29 -313 19z"/>
<path d="M9208 6722 c-2 -10 -4 -142 -3 -296 l0 -278 1678 -2 1677 -1 0 297 0
297 -232 -5 c-283 -5 -1047 -16 -1068 -15 -8 1 -31 1 -50 0 -19 0 -39 0 -45 0
-59 1 -115 0 -140 -2 -16 -1 -40 1 -51 5 -12 4 -25 4 -28 1 -8 -8 -112 -7
-125 2 -6 3 -11 2 -11 -2 0 -5 -29 -8 -65 -8 -36 0 -65 3 -65 6 0 4 -15 4 -32
0 -18 -4 -44 -5 -58 -1 -14 3 -42 3 -62 -1 -21 -3 -39 -4 -42 -2 -2 3 -193 6
-423 9 -230 2 -515 6 -635 8 -196 4 -216 3 -220 -12z"/>
</g>
</svg>
